<svg version="1.1" xmlns="http://www.w3.org/2000/svg" x="0px" y="0px"
     viewBox="0 0 500 500" xml:space="preserve">
    <defs>
    <filter id="glow3" x="-50%" y="-50%" width="200%" height="200%">
      <feGaussianBlur stdDeviation="4" result="coloredBlur"/>
        <feMerge>
        <feMergeNode in="coloredBlur"/>
            <feMergeNode in="SourceGraphic"/>
      </feMerge>
    </filter>
        <filter id="glow2" x="-50%" y="-50%" width="200%" height="200%">
      <feGaussianBlur stdDeviation="4" result="coloredBlur"/>
            <feMerge>
        <feMergeNode in="coloredBlur"/>
                <feMergeNode in="SourceGraphic"/>
      </feMerge>
    </filter>
        <filter id="glow1" x="-50%" y="-50%" width="200%" height="200%">
      <feGaussianBlur stdDeviation="2" result="coloredBlur"/>
            <feMerge>
        <feMergeNode in="coloredBlur"/>
                <feMergeNode in="SourceGraphic"/>
      </feMerge>
    </filter>
  </defs>
    <circle cx="232.6" cy="40.7" r="3" fill="#D9D9D9" filter="url(#glow3)"/>
    <circle cx="184.1" cy="67.5" r="3" fill="#D9D9D9" filter="url(#glow3)"/>
    <circle cx="89.7" cy="486.9" r="3" fill="#D9D9D9" filter="url(#glow3)"/>
    <circle cx="454.2" cy="186.6" r="3" fill="#D9D9D9" filter="url(#glow3)"/>
    <circle cx="0.5" cy="403.7" r="3" fill="#D9D9D9" filter="url(#glow3)"/>
    <circle cx="456.0" cy="246.7" r="3" fill="#D9D9D9" filter="url(#glow3)"/>
    <circle cx="51.8" cy="317.6" r="3" fill="#D9D9D9" filter="url(#glow3)"/>
    <circle cx="194.6" cy="345.7" r="3" fill="#D9D9D9" filter="url(#glow3)"/>
    <circle cx="429.6" cy="90.6" r="3" fill="#D9D9D9" filter="url(#glow3)"/>
    <circle cx="485.3" cy="244.7" r="3" fill="#D9D9D9" filter="url(#glow3)"/>
    <circle cx="217.4" cy="251.0" r="2" fill="#C6C6C6" filter="url(#glow2)"/>
    <circle cx="192.7" cy="311.7" r="2" fill="#C6C6C6" filter="url(#glow2)"/>
    <circle cx="375.6" cy="371.8" r="2" fill="#C6C6C6" filter="url(#glow2)"/>
    <circle cx="481.4" cy="123.7" r="2" fill="#C6C6C6" filter="url(#glow2)"/>
    <circle cx="43.3" cy="100.1" r="2" fill="#C6C6C6" filter="url(#glow2)"/>
    <circle cx="85.8" cy="142.5" r="2" fill="#C6C6C6" filter="url(#glow2)"/>
    <circle cx="404.9" cy="380.6" r="2" fill="#C6C6C6" filter="url(#glow2)"/>
    <circle cx="284.1" cy="183.3" r="2" fill="#C6C6C6" filter="url(#glow2)"/>
    <circle cx="408.2" cy="37.7" r="2" fill="#C6C6C6" filter="url(#glow2)"/>
    <circle cx="491.5" cy="272.5" r="2" fill="#C6C6C6" filter="url(#glow2)"/>
    <circle cx="22.0" cy="14.2" r="2" fill="#C6C6C6" filter="url(#glow2)"/>
    <circle cx="481.1" cy="230.1" r="2" fill="#C6C6C6" filter="url(#glow2)"/>
    <circle cx="270.5" cy="132.0" r="2" fill="#C6C6C6" filter="url(#glow2)"/>
    <circle cx="460.3" cy="68.1" r="2" fill="#C6C6C6" filter="url(#glow2)"/>
    <circle cx="82.1" cy="102.6" r="2" fill="#C6C6C6" filter="url(#glow2)"/>
    <circle cx="345.0" cy="70.4" r="2" fill="#C6C6C6" filter="url(#glow2)"/>
    <circle cx="47.9" cy="81.7" r="2" fill="#C6C6C6" filter="url(#glow2)"/>
    <circle cx="92.1" cy="313.0" r="2" fill="#C6C6C6" filter="url(#glow2)"/>
    <circle cx="398.2" cy="210.9" r="2" fill="#C6C6C6" filter="url(#glow2)"/>
    <circle cx="226.1" cy="87.6" r="2" fill="#C6C6C6" filter="url(#glow2)"/>
    <circle cx="72.8" cy="217.9" r="2" fill="#C6C6C6" filter="url(#glow2)"/>
    <circle cx="186.3" cy="84.1" r="2" fill="#C6C6C6" filter="url(#glow2)"/>
    <circle cx="243.3" cy="229.6" r="2" fill="#C6C6C6" filter="url(#glow2)"/>
    <circle cx="250.9" cy="116.6" r="2" fill="#C6C6C6" filter="url(#glow2)"/>
    <circle cx="342.7" cy="42.5" r="2" fill="#C6C6C6" filter="url(#glow2)"/>
    <circle cx="97.5" cy="357.8" r="2" fill="#C6C6C6" filter="url(#glow2)"/>
    <circle cx="177.9" cy="373.3" r="2" fill="#C6C6C6" filter="url(#glow2)"/>
    <circle cx="345.0" cy="2.8" r="2" fill="#C6C6C6" filter="url(#glow2)"/>
    <circle cx="218.5" cy="72.8" r="2" fill="#C6C6C6" filter="url(#glow2)"/>
    <circle cx="82.7" cy="34.1" r="2" fill="#C6C6C6" filter="url(#glow2)"/>
    <circle cx="113.4" cy="161.7" r="2" fill="#C6C6C6" filter="url(#glow2)"/>
    <circle cx="283.1" cy="489.2" r="2" fill="#C6C6C6" filter="url(#glow2)"/>
    <circle cx="165.9" cy="65.6" r="2" fill="#C6C6C6" filter="url(#glow2)"/>
    <circle cx="442.1" cy="497.7" r="2" fill="#C6C6C6" filter="url(#glow2)"/>
    <circle cx="72.0" cy="164.5" r="2" fill="#C6C6C6" filter="url(#glow2)"/>
    <circle cx="12.6" cy="164.2" r="2" fill="#C6C6C6" filter="url(#glow2)"/>
    <circle cx="186.6" cy="210.3" r="2" fill="#C6C6C6" filter="url(#glow2)"/>
    <circle cx="197.2" cy="30.2" r="2" fill="#C6C6C6" filter="url(#glow2)"/>
    <circle cx="426.2" cy="235.8" r="2" fill="#C6C6C6" filter="url(#glow2)"/>
    <circle cx="417.2" cy="14.1" r="2" fill="#C6C6C6" filter="url(#glow2)"/>
    <circle cx="31.8" cy="208.6" r="1" fill="#DADADA" filter="url(#glow1)"/>
    <circle cx="454.1" cy="159.6" r="1" fill="#DADADA" filter="url(#glow1)"/>
    <circle cx="469.8" cy="143.4" r="1" fill="#DADADA" filter="url(#glow1)"/>
    <circle cx="138.2" cy="198.6" r="1" fill="#DADADA" filter="url(#glow1)"/>
    <circle cx="162.1" cy="110.8" r="1" fill="#DADADA" filter="url(#glow1)"/>
    <circle cx="16.4" cy="22.5" r="1" fill="#DADADA" filter="url(#glow1)"/>
    <circle cx="482.6" cy="65.5" r="1" fill="#DADADA" filter="url(#glow1)"/>
    <circle cx="170.6" cy="47.8" r="1" fill="#DADADA" filter="url(#glow1)"/>
    <circle cx="109.0" cy="403.4" r="1" fill="#DADADA" filter="url(#glow1)"/>
    <circle cx="98.7" cy="113.1" r="1" fill="#DADADA" filter="url(#glow1)"/>
    <circle cx="248.4" cy="434.8" r="1" fill="#DADADA" filter="url(#glow1)"/>
    <circle cx="260.5" cy="285.5" r="1" fill="#DADADA" filter="url(#glow1)"/>
    <circle cx="284.9" cy="355.2" r="1" fill="#DADADA" filter="url(#glow1)"/>
    <circle cx="323.3" cy="190.9" r="1" fill="#DADADA" filter="url(#glow1)"/>
    <circle cx="268.5" cy="60.4" r="1" fill="#DADADA" filter="url(#glow1)"/>
    <circle cx="111.6" cy="353.8" r="1" fill="#DADADA" filter="url(#glow1)"/>
    <circle cx="212.6" cy="347.4" r="1" fill="#DADADA" filter="url(#glow1)"/>
    <circle cx="265.2" cy="487.9" r="1" fill="#DADADA" filter="url(#glow1)"/>
    <circle cx="346.7" cy="134.5" r="1" fill="#DADADA" filter="url(#glow1)"/>
    <circle cx="281.4" cy="20.8" r="1" fill="#DADADA" filter="url(#glow1)"/>
    <circle cx="368.1" cy="296.4" r="1" fill="#DADADA" filter="url(#glow1)"/>
    <circle cx="142.9" cy="284.9" r="1" fill="#DADADA" filter="url(#glow1)"/>
    <circle cx="44.9" cy="430.3" r="1" fill="#DADADA" filter="url(#glow1)"/>
    <circle cx="150.8" cy="287.7" r="1" fill="#DADADA" filter="url(#glow1)"/>
    <circle cx="28.4" cy="303.9" r="1" fill="#DADADA" filter="url(#glow1)"/>
    <circle cx="449.8" cy="82.2" r="1" fill="#DADADA" filter="url(#glow1)"/>
    <circle cx="174.7" cy="306.2" r="1" fill="#DADADA" filter="url(#glow1)"/>
    <circle cx="241.0" cy="207.0" r="1" fill="#DADADA" filter="url(#glow1)"/>
    <circle cx="139.4" cy="65.0" r="1" fill="#DADADA" filter="url(#glow1)"/>
    <circle cx="341.8" cy="89.3" r="1" fill="#DADADA" filter="url(#glow1)"/>
    <circle cx="192.2" cy="381.4" r="1" fill="#DADADA" filter="url(#glow1)"/>
    <circle cx="495.3" cy="303.6" r="1" fill="#DADADA" filter="url(#glow1)"/>
    <circle cx="404.0" cy="326.9" r="1" fill="#DADADA" filter="url(#glow1)"/>
    <circle cx="142.6" cy="187.3" r="1" fill="#DADADA" filter="url(#glow1)"/>
    <circle cx="154.1" cy="436.1" r="1" fill="#DADADA" filter="url(#glow1)"/>
    <circle cx="183.1" cy="400.0" r="1" fill="#DADADA" filter="url(#glow1)"/>
    <circle cx="453.1" cy="37.4" r="1" fill="#DADADA" filter="url(#glow1)"/>
    <circle cx="497.5" cy="481.9" r="1" fill="#DADADA" filter="url(#glow1)"/>
    <circle cx="129.1" cy="266.9" r="1" fill="#DADADA" filter="url(#glow1)"/>
    <circle cx="141.4" cy="218.7" r="1" fill="#DADADA" filter="url(#glow1)"/>
    <circle cx="13.1" cy="46.8" r="1" fill="#DADADA" filter="url(#glow1)"/>
    <circle cx="261.4" cy="153.5" r="1" fill="#DADADA" filter="url(#glow1)"/>
    <circle cx="433.6" cy="12.1" r="1" fill="#DADADA" filter="url(#glow1)"/>
    <circle cx="180.8" cy="433.0" r="1" fill="#DADADA" filter="url(#glow1)"/>
    <circle cx="488.3" cy="292.9" r="1" fill="#DADADA" filter="url(#glow1)"/>
    <circle cx="304.7" cy="298.2" r="1" fill="#DADADA" filter="url(#glow1)"/>
    <circle cx="356.1" cy="217.7" r="1" fill="#DADADA" filter="url(#glow1)"/>
    <circle cx="420.8" cy="174.0" r="1" fill="#DADADA" filter="url(#glow1)"/>
    <circle cx="461.6" cy="307.4" r="1" fill="#DADADA" filter="url(#glow1)"/>
    <circle cx="114.7" cy="100.0" r="1" fill="#DADADA" filter="url(#glow1)"/>
    <circle cx="461.7" cy="130.6" r="1" fill="#DADADA" filter="url(#glow1)"/>
    <circle cx="203.9" cy="367.9" r="1" fill="#DADADA" filter="url(#glow1)"/>
    <circle cx="77.7" cy="414.4" r="1" fill="#DADADA" filter="url(#glow1)"/>
    <circle cx="192.7" cy="165.3" r="1" fill="#DADADA" filter="url(#glow1)"/>
    <circle cx="398.9" cy="365.5" r="1" fill="#DADADA" filter="url(#glow1)"/>
    <circle cx="221.9" cy="180.8" r="1" fill="#DADADA" filter="url(#glow1)"/>
    <circle cx="255.4" cy="290.6" r="1" fill="#DADADA" filter="url(#glow1)"/>
    <circle cx="394.9" cy="347.6" r="1" fill="#DADADA" filter="url(#glow1)"/>
    <circle cx="228.0" cy="392.2" r="1" fill="#DADADA" filter="url(#glow1)"/>
    <circle cx="318.7" cy="397.9" r="1" fill="#DADADA" filter="url(#glow1)"/>
    <circle cx="182.6" cy="44.2" r="1" fill="#DADADA" filter="url(#glow1)"/>
    <circle cx="130.0" cy="462.6" r="1" fill="#DADADA" filter="url(#glow1)"/>
    <circle cx="173.5" cy="341.6" r="1" fill="#DADADA" filter="url(#glow1)"/>
    <circle cx="196.0" cy="446.9" r="1" fill="#DADADA" filter="url(#glow1)"/>
    <circle cx="348.6" cy="408.0" r="1" fill="#DADADA" filter="url(#glow1)"/>
    <circle cx="287.4" cy="471.6" r="1" fill="#DADADA" filter="url(#glow1)"/>
    <circle cx="89.9" cy="415.2" r="1" fill="#DADADA" filter="url(#glow1)"/>
    <circle cx="416.2" cy="463.7" r="1" fill="#DADADA" filter="url(#glow1)"/>
    <circle cx="449.8" cy="280.8" r="1" fill="#DADADA" filter="url(#glow1)"/>
    <circle cx="140.5" cy="492.6" r="1" fill="#DADADA" filter="url(#glow1)"/>
    <circle cx="470.9" cy="190.6" r="1" fill="#DADADA" filter="url(#glow1)"/>
    <circle cx="435.9" cy="228.5" r="1" fill="#DADADA" filter="url(#glow1)"/>
    <circle cx="329.6" cy="239.4" r="1" fill="#DADADA" filter="url(#glow1)"/>
    <circle cx="32.1" cy="343.1" r="1" fill="#DADADA" filter="url(#glow1)"/>
    <circle cx="480.9" cy="415.0" r="1" fill="#DADADA" filter="url(#glow1)"/>
    <circle cx="234.1" cy="261.4" r="1" fill="#DADADA" filter="url(#glow1)"/>
    <circle cx="197.2" cy="208.1" r="1" fill="#DADADA" filter="url(#glow1)"/>
    <circle cx="333.0" cy="293.7" r="1" fill="#DADADA" filter="url(#glow1)"/>
    <circle cx="22.3" cy="231.5" r="1" fill="#DADADA" filter="url(#glow1)"/>
    <circle cx="351.8" cy="283.4" r="1" fill="#DADADA" filter="url(#glow1)"/>
</svg>