<svg version="1.1" xmlns="http://www.w3.org/2000/svg" x="0px" y="0px"
     viewBox="0 0 300 300" style="enable-background:new 0 0 300 300;" xml:space="preserve">
    <defs>
      <filter id="glow3" x="-50%" y="-50%" width="200%" height="200%">
        <feGaussianBlur stdDeviation="4" result="coloredBlur"/>
          <feMerge>
          <feMergeNode in="coloredBlur"/>
              <feMergeNode in="SourceGraphic"/>
        </feMerge>
      </filter>
    </defs>
    <circle cx="30" cy="250" r="3" fill="#D9D9D9" filter="url(#glow3)"/>
    <circle cx="270" cy="50" r="3" fill="#D9D9D9" filter="url(#glow3)"/>
    <circle cx="150" cy="280" r="3" fill="#D9D9D9" filter="url(#glow3)"/>
    <circle cx="50" cy="100" r="3" fill="#D9D9D9" filter="url(#glow3)"/>
    <circle cx="250" cy="120" r="3" fill="#D9D9D9" filter="url(#glow3)"/>
    <circle cx="100" cy="200" r="3" fill="#D9D9D9" filter="url(#glow3)"/>
    <circle cx="180" cy="30" r="3" fill="#D9D9D9" filter="url(#glow3)"/>
    <circle cx="220" cy="180" r="3" fill="#D9D9D9" filter="url(#glow3)"/>
    <circle cx="80" cy="270" r="3" fill="#D9D9D9" filter="url(#glow3)"/>
    <circle cx="200" cy="80" r="3" fill="#D9D9D9" filter="url(#glow3)"/>
    <defs>
      <filter id="glow2" x="-50%" y="-50%" width="200%" height="200%">
        <feGaussianBlur stdDeviation="4" result="coloredBlur"/>
          <feMerge>
          <feMergeNode in="coloredBlur"/>
              <feMergeNode in="SourceGraphic"/>
        </feMerge>
      </filter>
    </defs>
    <circle cx="120" cy="260" r="2" fill="#C6C6C6" filter="url(#glow2)"/>
    <circle cx="160" cy="40" r="2" fill="#C6C6C6" filter="url(#glow2)"/>
    <circle cx="200" cy="160" r="2" fill="#C6C6C6" filter="url(#glow2)"/>
    <circle cx="80" cy="140" r="2" fill="#C6C6C6" filter="url(#glow2)"/>
    <circle cx="220" cy="200" r="2" fill="#C6C6C6" filter="url(#glow2)"/>
    <circle cx="40" cy="240" r="2" fill="#C6C6C6" filter="url(#glow2)"/>
    <circle cx="180" cy="60" r="2" fill="#C6C6C6" filter="url(#glow2)"/>
    <circle cx="260" cy="120" r="2" fill="#C6C6C6" filter="url(#glow2)"/>
    <circle cx="100" cy="20" r="2" fill="#C6C6C6" filter="url(#glow2)"/>
    <circle cx="280" cy="180" r="2" fill="#C6C6C6" filter="url(#glow2)"/>
    <circle cx="140" cy="280" r="2" fill="#C6C6C6" filter="url(#glow2)"/>
    <circle cx="20" cy="60" r="2" fill="#C6C6C6" filter="url(#glow2)"/>
    <circle cx="260" cy="240" r="2" fill="#C6C6C6" filter="url(#glow2)"/>
    <circle cx="60" cy="100" r="2" fill="#C6C6C6" filter="url(#glow2)"/>
    <circle cx="180" cy="140" r="2" fill="#C6C6C6" filter="url(#glow2)"/>
    <circle cx="240" cy="220" r="2" fill="#C6C6C6" filter="url(#glow2)"/>
    <circle cx="100" cy="180" r="2" fill="#C6C6C6" filter="url(#glow2)"/>
    <circle cx="220" cy="100" r="2" fill="#C6C6C6" filter="url(#glow2)"/>
    <circle cx="40" cy="260" r="2" fill="#C6C6C6" filter="url(#glow2)"/>
    <circle cx="260" cy="40" r="2" fill="#C6C6C6" filter="url(#glow2)"/>
    <circle cx="120" cy="80" r="2" fill="#C6C6C6" filter="url(#glow2)"/>
    <circle cx="200" cy="240" r="2" fill="#C6C6C6" filter="url(#glow2)"/>
    <circle cx="280" cy="160" r="2" fill="#C6C6C6" filter="url(#glow2)"/>
    <circle cx="140" cy="40" r="2" fill="#C6C6C6" filter="url(#glow2)"/>
    <circle cx="20" cy="220" r="2" fill="#C6C6C6" filter="url(#glow2)"/>
    <circle cx="260" cy="100" r="2" fill="#C6C6C6" filter="url(#glow2)"/>
    <circle cx="60" cy="280" r="2" fill="#C6C6C6" filter="url(#glow2)"/>
    <circle cx="180" cy="20" r="2" fill="#C6C6C6" filter="url(#glow2)"/>
    <circle cx="240" cy="180" r="2" fill="#C6C6C6" filter="url(#glow2)"/>
    <circle cx="100" cy="60" r="2" fill="#C6C6C6" filter="url(#glow2)"/>
    <circle cx="220" cy="140" r="2" fill="#C6C6C6" filter="url(#glow2)"/>
    <circle cx="40" cy="200" r="2" fill="#C6C6C6" filter="url(#glow2)"/>
    <circle cx="260" cy="120" r="2" fill="#C6C6C6" filter="url(#glow2)"/>
    <circle cx="120" cy="260" r="2" fill="#C6C6C6" filter="url(#glow2)"/>
    <circle cx="200" cy="40" r="2" fill="#C6C6C6" filter="url(#glow2)"/>
    <circle cx="280" cy="180" r="2" fill="#C6C6C6" filter="url(#glow2)"/>
    <circle cx="140" cy="280" r="2" fill="#C6C6C6" filter="url(#glow2)"/>
    <circle cx="20" cy="60" r="2" fill="#C6C6C6" filter="url(#glow2)"/>
    <defs>
      <filter id="glow1" x="-50%" y="-50%" width="200%" height="200%">
        <feGaussianBlur stdDeviation="2" result="coloredBlur"/>
          <feMerge>
          <feMergeNode in="coloredBlur"/>
              <feMergeNode in="SourceGraphic"/>
        </feMerge>
      </filter>
    </defs>
    <circle cx="20" cy="20" r="1" fill="#DADADA" filter="url(#glow1)"/>
    <circle cx="280" cy="280" r="1" fill="#DADADA" filter="url(#glow1)"/>
    <circle cx="100" cy="50" r="1" fill="#DADADA" filter="url(#glow1)"/>
    <circle cx="200" cy="250" r="1" fill="#DADADA" filter="url(#glow1)"/>
    <circle cx="50" cy="150" r="1" fill="#DADADA" filter="url(#glow1)"/>
    <circle cx="250" cy="100" r="1" fill="#DADADA" filter="url(#glow1)"/>
    <circle cx="150" cy="200" r="1" fill="#DADADA" filter="url(#glow1)"/>
    <circle cx="30" cy="270" r="1" fill="#DADADA" filter="url(#glow1)"/>
    <circle cx="270" cy="30" r="1" fill="#DADADA" filter="url(#glow1)"/>
    <circle cx="70" cy="180" r="1" fill="#DADADA" filter="url(#glow1)"/>
    <circle cx="180" cy="70" r="1" fill="#DADADA" filter="url(#glow1)"/>
    <circle cx="220" cy="220" r="1" fill="#DADADA" filter="url(#glow1)"/>
    <circle cx="40" cy="240" r="1" fill="#DADADA" filter="url(#glow1)"/>
    <circle cx="260" cy="40" r="1" fill="#DADADA" filter="url(#glow1)"/>
    <circle cx="120" cy="80" r="1" fill="#DADADA" filter="url(#glow1)"/>
    <circle cx="200" cy="120" r="1" fill="#DADADA" filter="url(#glow1)"/>
    <circle cx="280" cy="160" r="1" fill="#DADADA" filter="url(#glow1)"/>
    <circle cx="60" cy="200" r="1" fill="#DADADA" filter="url(#glow1)"/>
    <circle cx="140" cy="240" r="1" fill="#DADADA" filter="url(#glow1)"/>
    <circle cx="220" cy="280" r="1" fill="#DADADA" filter="url(#glow1)"/>
    <circle cx="30" cy="60" r="1" fill="#DADADA" filter="url(#glow1)"/>
    <circle cx="110" cy="100" r="1" fill="#DADADA" filter="url(#glow1)"/>
    <circle cx="190" cy="140" r="1" fill="#DADADA" filter="url(#glow1)"/>
    <circle cx="270" cy="180" r="1" fill="#DADADA" filter="url(#glow1)"/>
    <circle cx="50" cy="220" r="1" fill="#DADADA" filter="url(#glow1)"/>
    <circle cx="130" cy="260" r="1" fill="#DADADA" filter="url(#glow1)"/>
    <circle cx="210" cy="30" r="1" fill="#DADADA" filter="url(#glow1)"/>
    <circle cx="290" cy="70" r="1" fill="#DADADA" filter="url(#glow1)"/>
    <circle cx="90" cy="110" r="1" fill="#DADADA" filter="url(#glow1)"/>
    <circle cx="170" cy="150" r="1" fill="#DADADA" filter="url(#glow1)"/>
    <circle cx="250" cy="190" r="1" fill="#DADADA" filter="url(#glow1)"/>
    <circle cx="70" cy="230" r="1" fill="#DADADA" filter="url(#glow1)"/>
    <circle cx="150" cy="270" r="1" fill="#DADADA" filter="url(#glow1)"/>
    <circle cx="230" cy="10" r="1" fill="#DADADA" filter="url(#glow1)"/>
    <circle cx="30" cy="130" r="1" fill="#DADADA" filter="url(#glow1)"/>
    <circle cx="110" cy="170" r="1" fill="#DADADA" filter="url(#glow1)"/>
    <circle cx="190" cy="210" r="1" fill="#DADADA" filter="url(#glow1)"/>
    <circle cx="270" cy="250" r="1" fill="#DADADA" filter="url(#glow1)"/>
    <circle cx="50" cy="290" r="1" fill="#DADADA" filter="url(#glow1)"/>
    <circle cx="130" cy="30" r="1" fill="#DADADA" filter="url(#glow1)"/>
    <circle cx="210" cy="70" r="1" fill="#DADADA" filter="url(#glow1)"/>
    <circle cx="290" cy="110" r="1" fill="#DADADA" filter="url(#glow1)"/>
    <circle cx="90" cy="150" r="1" fill="#DADADA" filter="url(#glow1)"/>
    <circle cx="170" cy="190" r="1" fill="#DADADA" filter="url(#glow1)"/>
    <circle cx="250" cy="230" r="1" fill="#DADADA" filter="url(#glow1)"/>
    <circle cx="70" cy="270" r="1" fill="#DADADA" filter="url(#glow1)"/>
    <circle cx="150" cy="10" r="1" fill="#DADADA" filter="url(#glow1)"/>
    <circle cx="230" cy="50" r="1" fill="#DADADA" filter="url(#glow1)"/>
    <circle cx="30" cy="90" r="1" fill="#DADADA" filter="url(#glow1)"/>
    <circle cx="110" cy="130" r="1" fill="#DADADA" filter="url(#glow1)"/>
    <circle cx="190" cy="170" r="1" fill="#DADADA" filter="url(#glow1)"/>
    <circle cx="270" cy="210" r="1" fill="#DADADA" filter="url(#glow1)"/>
    <circle cx="50" cy="250" r="1" fill="#DADADA" filter="url(#glow1)"/>
    <circle cx="130" cy="290" r="1" fill="#DADADA" filter="url(#glow1)"/>
    <circle cx="210" cy="40" r="1" fill="#DADADA" filter="url(#glow1)"/>
    <circle cx="290" cy="80" r="1" fill="#DADADA" filter="url(#glow1)"/>
    <!-- Новые круги с r=1 -->
    <circle cx="10" cy="10" r="1" fill="#DADADA" filter="url(#glow1)"/>
    <circle cx="290" cy="290" r="1" fill="#DADADA" filter="url(#glow1)"/>
    <circle cx="150" cy="10" r="1" fill="#DADADA" filter="url(#glow1)"/>
    <circle cx="10" cy="290" r="1" fill="#DADADA" filter="url(#glow1)"/>
    <circle cx="290" cy="10" r="1" fill="#DADADA" filter="url(#glow1)"/>
    <circle cx="150" cy="290" r="1" fill="#DADADA" filter="url(#glow1)"/>
    <circle cx="50" cy="50" r="1" fill="#DADADA" filter="url(#glow1)"/>
    <circle cx="250" cy="250" r="1" fill="#DADADA" filter="url(#glow1)"/>
    <circle cx="100" cy="100" r="1" fill="#DADADA" filter="url(#glow1)"/>
    <circle cx="200" cy="200" r="1" fill="#DADADA" filter="url(#glow1)"/>
    <circle cx="150" cy="150" r="1" fill="#DADADA" filter="url(#glow1)"/>
    <circle cx="200" cy="100" r="1" fill="#DADADA" filter="url(#glow1)"/>
    <circle cx="100" cy="200" r="1" fill="#DADADA" filter="url(#glow1)"/>
    <circle cx="250" cy="150" r="1" fill="#DADADA" filter="url(#glow1)"/>
    <circle cx="50" cy="200" r="1" fill="#DADADA" filter="url(#glow1)"/>
    <circle cx="250" cy="50" r="1" fill="#DADADA" filter="url(#glow1)"/>
    <circle cx="200" cy="250" r="1" fill="#DADADA" filter="url(#glow1)"/>
    <circle cx="50" cy="250" r="1" fill="#DADADA" filter="url(#glow1)"/>
    <circle cx="250" cy="200" r="1" fill="#DADADA" filter="url(#glow1)"/>
    <circle cx="100" cy="250" r="1" fill="#DADADA" filter="url(#glow1)"/>
    <circle cx="200" cy="50" r="1" fill="#DADADA" filter="url(#glow1)"/>
    <circle cx="50" cy="100" r="1" fill="#DADADA" filter="url(#glow1)"/>
    <circle cx="250" cy="100" r="1" fill="#DADADA" filter="url(#glow1)"/>
    <circle cx="100" cy="50" r="1" fill="#DADADA" filter="url(#glow1)"/>
    <circle cx="200" cy="150" r="1" fill="#DADADA" filter="url(#glow1)"/>
    <circle cx="50" cy="150" r="1" fill="#DADADA" filter="url(#glow1)"/>
    <circle cx="250" cy="200" r="1" fill="#DADADA" filter="url(#glow1)"/>
    <circle cx="100" cy="200" r="1" fill="#DADADA" filter="url(#glow1)"/>
    <circle cx="200" cy="250" r="1" fill="#DADADA" filter="url(#glow1)"/>
</svg>