<svg xmlns="http://www.w3.org/2000/svg" xml:space="preserve" style="enable-background:new 0 0 192 192"
     viewBox="0 0 192 192">
        <switch>
            <g>
                <path
                        fill="#161c20"
                        d="M0 0h192v192H0z"
                />
                <g>
                    <path
                            fill="#33adb4"
                            d="M3.66 100.57h74.97c2.02 0 3.66-1.64 3.66-3.66V76.8c0-2.02-1.64-3.66-3.66-3.66H58.51c-2.02 0-3.66-1.64-3.66-3.66V49.37c0-2.02-1.64-3.66-3.66-3.66h-20.1c-2.02 0-3.66-1.64-3.66-3.66V21.94c0-2.02-1.64-3.66-3.66-3.66H3.66C1.64 18.29 0 19.92 0 21.94v74.97c0 2.02 1.64 3.66 3.66 3.66zM188.34 18.29h-20.11c-2.02 0-3.66 1.64-3.66 3.66v20.11c0 2.02-1.64 3.66-3.66 3.66H140.8c-2.02 0-3.66 1.64-3.66 3.66v20.11c0 2.02-1.64 3.66-3.66 3.66h-20.11c-2.02 0-3.66 1.64-3.66 3.66v20.11c0 2.02 1.64 3.66 3.66 3.66h74.97c2.02 0 3.66-1.64 3.66-3.66V21.94c0-2.02-1.64-3.65-3.66-3.65zM23.77 146.29H3.66c-2.02 0-3.66 1.64-3.66 3.66v20.11c0 2.02 1.64 3.66 3.66 3.66h20.11c2.02 0 3.66-1.64 3.66-3.66v-20.11c0-2.03-1.64-3.66-3.66-3.66zM188.34 109.71H3.66c-2.02 0-3.66 1.64-3.66 3.66v20.11c0 2.02 1.64 3.66 3.66 3.66H188.35c2.02 0 3.66-1.64 3.66-3.66v-20.11a3.677 3.677 0 0 0-3.67-3.66zM188.34 146.29h-20.11c-2.02 0-3.66 1.64-3.66 3.66v20.11c0 2.02 1.64 3.66 3.66 3.66h20.11c2.02 0 3.66-1.64 3.66-3.66v-20.11c0-2.03-1.64-3.66-3.66-3.66z"
                    />
                </g>
            </g>
        </switch>
    </svg>